<svg xmlns="http://www.w3.org/2000/svg" version="1.1" xmlns:xlink="http://www.w3.org/1999/xlink" xmlns:svgjs="http://svgjs.dev/svgjs" viewBox="0 0 800 800" opacity="0.76"><g stroke-width="2.5" stroke="hsla(244, 40%, 83%, 1)" fill="none" stroke-linecap="round" transform="matrix(1,0,0,1,-5,349.0009231567383)"><path d="M10,10C41.25,12.916666666666668,95.41666666666667,30.25,160,24C224.58333333333331,17.75,253.33333333333331,-21.875,320,-20C386.6666666666667,-18.125,413.3333333333333,37.375,480,33C546.6666666666666,28.625,573.3333333333334,-41.416666666666664,640,-41C706.6666666666666,-40.583333333333336,766.6666666666666,19.166666666666668,800,35"></path><path d="M10,10C41.25,12.916666666666668,95.41666666666667,30.25,160,24C224.58333333333331,17.75,253.33333333333331,-21.875,320,-20C386.6666666666667,-18.125,413.3333333333333,37.375,480,33C546.6666666666666,28.625,573.3333333333334,-41.416666666666664,640,-41C706.6666666666666,-40.583333333333336,766.6666666666666,19.166666666666668,800,35" transform="matrix(1,0,0,1,0,108)"></path><path d="M10,10C41.25,12.916666666666668,95.41666666666667,30.25,160,24C224.58333333333331,17.75,253.33333333333331,-21.875,320,-20C386.6666666666667,-18.125,413.3333333333333,37.375,480,33C546.6666666666666,28.625,573.3333333333334,-41.416666666666664,640,-41C706.6666666666666,-40.583333333333336,766.6666666666666,19.166666666666668,800,35" transform="matrix(1,0,0,1,0,90)"></path><path d="M10,10C41.25,12.916666666666668,95.41666666666667,30.25,160,24C224.58333333333331,17.75,253.33333333333331,-21.875,320,-20C386.6666666666667,-18.125,413.3333333333333,37.375,480,33C546.6666666666666,28.625,573.3333333333334,-41.416666666666664,640,-41C706.6666666666666,-40.583333333333336,766.6666666666666,19.166666666666668,800,35" transform="matrix(1,0,0,1,0,72)"></path><path d="M10,10C41.25,12.916666666666668,95.41666666666667,30.25,160,24C224.58333333333331,17.75,253.33333333333331,-21.875,320,-20C386.6666666666667,-18.125,413.3333333333333,37.375,480,33C546.6666666666666,28.625,573.3333333333334,-41.416666666666664,640,-41C706.6666666666666,-40.583333333333336,766.6666666666666,19.166666666666668,800,35" transform="matrix(1,0,0,1,0,54)"></path><path d="M10,10C41.25,12.916666666666668,95.41666666666667,30.25,160,24C224.58333333333331,17.75,253.33333333333331,-21.875,320,-20C386.6666666666667,-18.125,413.3333333333333,37.375,480,33C546.6666666666666,28.625,573.3333333333334,-41.416666666666664,640,-41C706.6666666666666,-40.583333333333336,766.6666666666666,19.166666666666668,800,35" transform="matrix(1,0,0,1,0,36)"></path><path d="M10,10C41.25,12.916666666666668,95.41666666666667,30.25,160,24C224.58333333333331,17.75,253.33333333333331,-21.875,320,-20C386.6666666666667,-18.125,413.3333333333333,37.375,480,33C546.6666666666666,28.625,573.3333333333334,-41.416666666666664,640,-41C706.6666666666666,-40.583333333333336,766.6666666666666,19.166666666666668,800,35" transform="matrix(1,0,0,1,0,18)"></path></g></svg>