<svg id="10015.io" viewBox="0 0 1080 1080" xmlns="http://www.w3.org/2000/svg"><defs><pattern id="pattern" x="0" y="0" width="62" height="62" patternUnits="userSpaceOnUse" patternTransform="translate(30, 30) rotate(0) skewX(0)"><svg width="32" height="32" viewBox="0 0 100 100"><g fill="#6163ff" opacity="0.25"><path d="M82.2266 79.2969H17.7734C13.0762 79.2969 8.63398 77.4752 5.26523 74.1672C1.86992 70.8334 0 66.4123 0 61.7188C0 57.0252 1.86992 52.6041 5.26523 49.2703C7.92422 46.6594 11.252 44.9744 14.8461 44.3801C14.8445 44.3008 14.8438 44.2209 14.8438 44.1406C14.8438 31.2172 25.3578 20.7031 38.2812 20.7031C43.0738 20.7031 47.6795 22.1459 51.6004 24.8756C54.3605 26.7971 56.6521 29.259 58.3557 32.1105C61.1055 30.4049 64.2771 29.4922 67.5781 29.4922C76.3449 29.4922 83.6332 35.9426 84.9455 44.3469C88.6195 44.9094 92.0244 46.6088 94.735 49.2703C98.1301 52.6041 100 57.025 100 61.7188C100 66.4125 98.1301 70.8334 94.735 74.1672C91.366 77.4752 86.9238 79.2969 82.2266 79.2969ZM17.7734 50C11.2039 50 5.85938 55.257 5.85938 61.7188C5.85938 68.1805 11.2039 73.4375 17.7734 73.4375H82.2266C88.7961 73.4375 94.1406 68.1805 94.1406 61.7188C94.1406 55.257 88.7961 50 82.2266 50H79.2969V47.0703C79.2969 40.6086 74.0398 35.3516 67.5781 35.3516C64.4988 35.3516 61.5859 36.5469 59.376 38.7174L56.2225 41.8146L54.5984 37.7035C51.9248 30.9357 45.5199 26.5625 38.2812 26.5625C28.5887 26.5625 20.7031 34.448 20.7031 44.1406C20.7031 44.8328 20.8117 45.576 20.9266 46.3629L21.4514 50H17.7734Z"></path></g></svg></pattern></defs><rect x="0" y="0" width="100%" height="100%" fill="rgba(0, 0, 0, 0)"></rect><rect x="0" y="0" width="100%" height="100%" fill="url(#pattern)"></rect></svg>